<svg width="170" height="26" viewBox="0 0 170 26" fill="none" xmlns="http://www.w3.org/2000/svg">
<path d="M16.1254 15.718L13.1334 7.541C12.9861 7.17833 12.8331 6.74767 12.6744 6.249C12.5157 5.75033 12.3571 5.212 12.1984 4.634C12.0511 5.212 11.8981 5.756 11.7394 6.266C11.5807 6.76467 11.4277 7.201 11.2804 7.575L8.30539 15.718H16.1254ZM24.2004 25H20.6644C20.2677 25 19.9447 24.9037 19.6954 24.711C19.4461 24.507 19.2591 24.2577 19.1344 23.963L17.2984 18.948H7.11539L5.27939 23.963C5.18872 24.2237 5.01306 24.4617 4.75239 24.677C4.49172 24.8923 4.16872 25 3.78339 25H0.213391L9.88639 0.417998H14.5444L24.2004 25ZM35.9418 21.43C36.7918 21.43 37.5058 21.328 38.0838 21.124C38.6618 20.92 39.1208 20.648 39.4608 20.308C39.8121 19.968 40.0615 19.5713 40.2088 19.118C40.3675 18.6647 40.4468 18.183 40.4468 17.673C40.4468 17.1403 40.3618 16.6643 40.1918 16.245C40.0218 15.8143 39.7555 15.4517 39.3928 15.157C39.0301 14.851 38.5598 14.6187 37.9818 14.46C37.4151 14.3013 36.7295 14.222 35.9248 14.222H31.3178V21.43H35.9418ZM31.3178 3.954V11.06H34.9558C36.5198 11.06 37.6985 10.7767 38.4918 10.21C39.2965 9.64333 39.6988 8.74233 39.6988 7.507C39.6988 6.22633 39.3361 5.314 38.6108 4.77C37.8855 4.226 36.7521 3.954 35.2108 3.954H31.3178ZM35.2108 0.417998C36.8201 0.417998 38.1971 0.570999 39.3418 0.876999C40.4865 1.183 41.4215 1.61933 42.1468 2.186C42.8835 2.75267 43.4218 3.43833 43.7618 4.243C44.1018 5.04767 44.2718 5.95433 44.2718 6.963C44.2718 7.541 44.1868 8.09633 44.0168 8.629C43.8468 9.15033 43.5805 9.64333 43.2178 10.108C42.8665 10.5613 42.4131 10.975 41.8578 11.349C41.3138 11.723 40.6621 12.0403 39.9028 12.301C43.2801 13.0603 44.9688 14.885 44.9688 17.775C44.9688 18.8177 44.7705 19.781 44.3738 20.665C43.9771 21.549 43.3991 22.314 42.6398 22.96C41.8805 23.5947 40.9455 24.0933 39.8348 24.456C38.7241 24.8187 37.4548 25 36.0268 25H26.7448V0.417998H35.2108ZM72.5667 12.709C72.5667 14.511 72.2664 16.1827 71.6657 17.724C71.0764 19.254 70.2377 20.58 69.1497 21.702C68.0617 22.824 66.7527 23.7023 65.2227 24.337C63.6927 24.9603 61.9927 25.272 60.1227 25.272C58.2641 25.272 56.5697 24.9603 55.0397 24.337C53.5097 23.7023 52.1951 22.824 51.0957 21.702C50.0077 20.58 49.1634 19.254 48.5627 17.724C47.9621 16.1827 47.6617 14.511 47.6617 12.709C47.6617 10.907 47.9621 9.241 48.5627 7.711C49.1634 6.16967 50.0077 4.838 51.0957 3.716C52.1951 2.594 53.5097 1.72133 55.0397 1.098C56.5697 0.463333 58.2641 0.146 60.1227 0.146C61.3694 0.146 62.5424 0.293333 63.6417 0.587998C64.7411 0.871333 65.7497 1.27933 66.6677 1.812C67.5857 2.33333 68.4074 2.97367 69.1327 3.733C69.8694 4.481 70.4927 5.31967 71.0027 6.249C71.5127 7.17833 71.8981 8.187 72.1587 9.275C72.4307 10.363 72.5667 11.5077 72.5667 12.709ZM67.8917 12.709C67.8917 11.3603 67.7104 10.1533 67.3477 9.088C66.9851 8.01133 66.4694 7.099 65.8007 6.351C65.1321 5.603 64.3161 5.03067 63.3527 4.634C62.4007 4.23733 61.3241 4.039 60.1227 4.039C58.9214 4.039 57.8391 4.23733 56.8757 4.634C55.9237 5.03067 55.1077 5.603 54.4277 6.351C53.7591 7.099 53.2434 8.01133 52.8807 9.088C52.5181 10.1533 52.3367 11.3603 52.3367 12.709C52.3367 14.0577 52.5181 15.2703 52.8807 16.347C53.2434 17.4123 53.7591 18.319 54.4277 19.067C55.1077 19.8037 55.9237 20.3703 56.8757 20.767C57.8391 21.1637 58.9214 21.362 60.1227 21.362C61.3241 21.362 62.4007 21.1637 63.3527 20.767C64.3161 20.3703 65.1321 19.8037 65.8007 19.067C66.4694 18.319 66.9851 17.4123 67.3477 16.347C67.7104 15.2703 67.8917 14.0577 67.8917 12.709ZM86.4767 21.311C87.3607 21.311 88.1484 21.1637 88.8397 20.869C89.5424 20.5743 90.1317 20.1607 90.6077 19.628C91.0837 19.0953 91.4464 18.4493 91.6957 17.69C91.9564 16.9307 92.0867 16.0807 92.0867 15.14V0.417998H96.6597V15.14C96.6597 16.602 96.4217 17.9563 95.9457 19.203C95.481 20.4383 94.8067 21.5093 93.9227 22.416C93.05 23.3113 91.9847 24.014 90.7267 24.524C89.4687 25.0227 88.052 25.272 86.4767 25.272C84.89 25.272 83.4677 25.0227 82.2097 24.524C80.9517 24.014 79.8807 23.3113 78.9967 22.416C78.124 21.5093 77.4497 20.4383 76.9737 19.203C76.509 17.9563 76.2767 16.602 76.2767 15.14V0.417998H80.8497V15.123C80.8497 16.0637 80.9744 16.9137 81.2237 17.673C81.4844 18.4323 81.8527 19.084 82.3287 19.628C82.816 20.1607 83.4054 20.5743 84.0967 20.869C84.7994 21.1637 85.5927 21.311 86.4767 21.311ZM118.987 4.175H111.575V25H107.002V4.175H99.5901V0.417998H118.987V4.175ZM139.336 21.311C140.22 21.311 141.008 21.1637 141.699 20.869C142.402 20.5743 142.991 20.1607 143.467 19.628C143.943 19.0953 144.306 18.4493 144.555 17.69C144.816 16.9307 144.946 16.0807 144.946 15.14V0.417998H149.519V15.14C149.519 16.602 149.281 17.9563 148.805 19.203C148.34 20.4383 147.666 21.5093 146.782 22.416C145.909 23.3113 144.844 24.014 143.586 24.524C142.328 25.0227 140.911 25.272 139.336 25.272C137.749 25.272 136.327 25.0227 135.069 24.524C133.811 24.014 132.74 23.3113 131.856 22.416C130.983 21.5093 130.309 20.4383 129.833 19.203C129.368 17.9563 129.136 16.602 129.136 15.14V0.417998H133.709V15.123C133.709 16.0637 133.834 16.9137 134.083 17.673C134.344 18.4323 134.712 19.084 135.188 19.628C135.675 20.1607 136.265 20.5743 136.956 20.869C137.659 21.1637 138.452 21.311 139.336 21.311ZM167.766 4.889C167.63 5.127 167.483 5.30267 167.324 5.416C167.177 5.518 166.99 5.569 166.763 5.569C166.525 5.569 166.265 5.484 165.981 5.314C165.709 5.13267 165.381 4.93433 164.995 4.719C164.61 4.50367 164.157 4.311 163.635 4.141C163.125 3.95967 162.519 3.869 161.816 3.869C161.182 3.869 160.626 3.94833 160.15 4.107C159.674 4.25433 159.272 4.464 158.943 4.736C158.626 5.008 158.388 5.33667 158.229 5.722C158.071 6.096 157.991 6.50967 157.991 6.963C157.991 7.541 158.15 8.02267 158.467 8.408C158.796 8.79333 159.227 9.122 159.759 9.394C160.292 9.666 160.898 9.90967 161.578 10.125C162.258 10.3403 162.955 10.5727 163.669 10.822C164.383 11.06 165.08 11.3433 165.76 11.672C166.44 11.9893 167.047 12.3973 167.579 12.896C168.112 13.3833 168.537 13.984 168.854 14.698C169.183 15.412 169.347 16.279 169.347 17.299C169.347 18.4097 169.155 19.4523 168.769 20.427C168.395 21.3903 167.84 22.2347 167.103 22.96C166.378 23.674 165.488 24.2407 164.434 24.66C163.38 25.068 162.173 25.272 160.813 25.272C160.031 25.272 159.261 25.1927 158.501 25.034C157.742 24.8867 157.011 24.6713 156.308 24.388C155.617 24.1047 154.965 23.7647 154.353 23.368C153.741 22.9713 153.197 22.5293 152.721 22.042L154.064 19.849C154.178 19.6903 154.325 19.56 154.506 19.458C154.688 19.3447 154.88 19.288 155.084 19.288C155.368 19.288 155.674 19.407 156.002 19.645C156.331 19.8717 156.722 20.1267 157.175 20.41C157.629 20.6933 158.156 20.954 158.756 21.192C159.368 21.4187 160.099 21.532 160.949 21.532C162.253 21.532 163.261 21.226 163.975 20.614C164.689 19.9907 165.046 19.101 165.046 17.945C165.046 17.299 164.882 16.772 164.553 16.364C164.236 15.956 163.811 15.616 163.278 15.344C162.746 15.0607 162.139 14.8227 161.459 14.63C160.779 14.4373 160.088 14.2277 159.385 14.001C158.683 13.7743 157.991 13.5023 157.311 13.185C156.631 12.8677 156.025 12.454 155.492 11.944C154.96 11.434 154.529 10.7993 154.2 10.04C153.883 9.26933 153.724 8.323 153.724 7.201C153.724 6.30567 153.9 5.433 154.251 4.583C154.614 3.733 155.135 2.97933 155.815 2.322C156.495 1.66467 157.334 1.13767 158.331 0.740999C159.329 0.344333 160.473 0.146 161.765 0.146C163.216 0.146 164.553 0.372666 165.777 0.825999C167.001 1.27933 168.044 1.914 168.905 2.73L167.766 4.889Z" fill="#3C3C3C"/>
</svg>
